<mxfile host="app.diagrams.net" modified="2024-03-18T11:20:06.763Z" agent="Mozilla/5.0 (Macintosh; Intel Mac OS X 10_15_7) AppleWebKit/537.36 (KHTML, like Gecko) Chrome/122.0.0.0 Safari/537.36" etag="c0p0FOszyC0OkCNBy6-x" version="24.0.7" type="github">
  <diagram name="Page-1" id="c4acf3e9-155e-7222-9cf6-157b1a14988f">
    <mxGraphModel dx="1021" dy="1531" grid="1" gridSize="10" guides="1" tooltips="1" connect="1" arrows="1" fold="1" page="1" pageScale="1" pageWidth="850" pageHeight="1100" background="none" math="0" shadow="0">
      <root>
        <mxCell id="0" />
        <mxCell id="1" parent="0" />
        <mxCell id="17acba5748e5396b-1" value="&lt;font style=&quot;font-size: 6px;&quot;&gt;Registration&lt;/font&gt;" style="shape=umlFrame;whiteSpace=wrap;html=1;rounded=0;shadow=0;comic=0;labelBackgroundColor=none;strokeWidth=1;fontFamily=Verdana;fontSize=10;align=left;" parent="1" vertex="1">
          <mxGeometry x="1350" y="100" width="820" height="1610" as="geometry" />
        </mxCell>
        <mxCell id="EnCKKxPeQJcOOB2GuZfE-2" value="System" style="shape=umlActor;verticalLabelPosition=bottom;verticalAlign=top;html=1;outlineConnect=0;" parent="1" vertex="1">
          <mxGeometry x="2290" y="620" width="70" height="120" as="geometry" />
        </mxCell>
        <mxCell id="EnCKKxPeQJcOOB2GuZfE-7" value="User" style="shape=umlActor;verticalLabelPosition=bottom;verticalAlign=top;html=1;outlineConnect=0;" parent="1" vertex="1">
          <mxGeometry x="1110" y="710" width="80" height="160" as="geometry" />
        </mxCell>
        <mxCell id="EnCKKxPeQJcOOB2GuZfE-57" value="&lt;font style=&quot;font-size: 6px;&quot;&gt;Authentication&lt;/font&gt;" style="shape=umlFrame;whiteSpace=wrap;html=1;rounded=0;shadow=0;comic=0;labelBackgroundColor=none;strokeWidth=1;fontFamily=Verdana;fontSize=10;align=left;" parent="1" vertex="1">
          <mxGeometry x="3000" y="110" width="820" height="1610" as="geometry" />
        </mxCell>
        <mxCell id="7nLuIF265XSXdmypBHoC-1" value="User" style="shape=umlActor;verticalLabelPosition=bottom;verticalAlign=top;html=1;outlineConnect=0;" parent="1" vertex="1">
          <mxGeometry x="2810" y="770" width="80" height="140" as="geometry" />
        </mxCell>
        <mxCell id="7nLuIF265XSXdmypBHoC-2" value="System" style="shape=umlActor;verticalLabelPosition=bottom;verticalAlign=top;html=1;outlineConnect=0;" parent="1" vertex="1">
          <mxGeometry x="3970" y="780" width="70" height="120" as="geometry" />
        </mxCell>
        <mxCell id="vM2ADVNM73PI7zcXNsxv-1" value="Register" style="ellipse;whiteSpace=wrap;html=1;" vertex="1" parent="1">
          <mxGeometry x="1670" y="640" width="190" height="140" as="geometry" />
        </mxCell>
        <mxCell id="vM2ADVNM73PI7zcXNsxv-2" value="User&lt;div&gt;Information&lt;/div&gt;&lt;div&gt;Processing&lt;/div&gt;" style="ellipse;whiteSpace=wrap;html=1;" vertex="1" parent="1">
          <mxGeometry x="1420" y="340" width="200" height="150" as="geometry" />
        </mxCell>
        <mxCell id="vM2ADVNM73PI7zcXNsxv-3" value="Information&lt;div&gt;Validation&lt;/div&gt;" style="ellipse;whiteSpace=wrap;html=1;" vertex="1" parent="1">
          <mxGeometry x="1900" y="340" width="200" height="140" as="geometry" />
        </mxCell>
        <mxCell id="vM2ADVNM73PI7zcXNsxv-4" value="Username&lt;div&gt;and&amp;nbsp;&lt;/div&gt;&lt;div&gt;Password&lt;/div&gt;&lt;div&gt;Details&lt;/div&gt;" style="ellipse;whiteSpace=wrap;html=1;" vertex="1" parent="1">
          <mxGeometry x="1420" y="940" width="210" height="140" as="geometry" />
        </mxCell>
        <mxCell id="vM2ADVNM73PI7zcXNsxv-5" value="Account&lt;div&gt;Confirmation&lt;/div&gt;" style="ellipse;whiteSpace=wrap;html=1;" vertex="1" parent="1">
          <mxGeometry x="1905" y="935" width="220" height="150" as="geometry" />
        </mxCell>
        <mxCell id="vM2ADVNM73PI7zcXNsxv-8" value="" style="endArrow=none;html=1;rounded=0;exitX=1;exitY=0;exitDx=0;exitDy=0;entryX=0;entryY=0.3333333333333333;entryDx=0;entryDy=0;entryPerimeter=0;" edge="1" parent="1" source="vM2ADVNM73PI7zcXNsxv-5" target="EnCKKxPeQJcOOB2GuZfE-2">
          <mxGeometry width="50" height="50" relative="1" as="geometry">
            <mxPoint x="2290" y="930" as="sourcePoint" />
            <mxPoint x="2290" y="740" as="targetPoint" />
          </mxGeometry>
        </mxCell>
        <mxCell id="vM2ADVNM73PI7zcXNsxv-10" value="" style="endArrow=none;html=1;rounded=0;exitX=1;exitY=0.5;exitDx=0;exitDy=0;" edge="1" parent="1" source="vM2ADVNM73PI7zcXNsxv-3">
          <mxGeometry width="50" height="50" relative="1" as="geometry">
            <mxPoint x="2103" y="967" as="sourcePoint" />
            <mxPoint x="2290" y="660" as="targetPoint" />
          </mxGeometry>
        </mxCell>
        <mxCell id="vM2ADVNM73PI7zcXNsxv-11" value="" style="endArrow=none;html=1;rounded=0;exitX=1;exitY=0.3333333333333333;exitDx=0;exitDy=0;exitPerimeter=0;" edge="1" parent="1" source="EnCKKxPeQJcOOB2GuZfE-7">
          <mxGeometry width="50" height="50" relative="1" as="geometry">
            <mxPoint x="2110" y="420" as="sourcePoint" />
            <mxPoint x="1670" y="720" as="targetPoint" />
          </mxGeometry>
        </mxCell>
        <mxCell id="vM2ADVNM73PI7zcXNsxv-12" value="&amp;lt;&amp;lt;include&amp;gt;&amp;gt;" style="html=1;verticalAlign=bottom;labelBackgroundColor=none;endArrow=open;endFill=0;dashed=1;rounded=0;entryX=0.976;entryY=0.641;entryDx=0;entryDy=0;entryPerimeter=0;" edge="1" parent="1" source="vM2ADVNM73PI7zcXNsxv-5" target="vM2ADVNM73PI7zcXNsxv-1">
          <mxGeometry width="160" relative="1" as="geometry">
            <mxPoint x="1440" y="580" as="sourcePoint" />
            <mxPoint x="1600" y="580" as="targetPoint" />
          </mxGeometry>
        </mxCell>
        <mxCell id="vM2ADVNM73PI7zcXNsxv-13" value="&amp;lt;&amp;lt;include&amp;gt;&amp;gt;" style="html=1;verticalAlign=bottom;labelBackgroundColor=none;endArrow=open;endFill=0;dashed=1;rounded=0;entryX=0;entryY=1;entryDx=0;entryDy=0;" edge="1" parent="1" source="vM2ADVNM73PI7zcXNsxv-4" target="vM2ADVNM73PI7zcXNsxv-1">
          <mxGeometry width="160" relative="1" as="geometry">
            <mxPoint x="1450" y="590" as="sourcePoint" />
            <mxPoint x="1610" y="590" as="targetPoint" />
          </mxGeometry>
        </mxCell>
        <mxCell id="vM2ADVNM73PI7zcXNsxv-14" value="&amp;lt;&amp;lt;include&amp;gt;&amp;gt;" style="html=1;verticalAlign=bottom;labelBackgroundColor=none;endArrow=open;endFill=0;dashed=1;rounded=0;exitX=0.5;exitY=1;exitDx=0;exitDy=0;entryX=0.918;entryY=0.251;entryDx=0;entryDy=0;entryPerimeter=0;" edge="1" parent="1" source="vM2ADVNM73PI7zcXNsxv-3" target="vM2ADVNM73PI7zcXNsxv-1">
          <mxGeometry width="160" relative="1" as="geometry">
            <mxPoint x="1460" y="600" as="sourcePoint" />
            <mxPoint x="1620" y="600" as="targetPoint" />
            <Array as="points" />
          </mxGeometry>
        </mxCell>
        <mxCell id="vM2ADVNM73PI7zcXNsxv-15" value="&amp;lt;&amp;lt;include&amp;gt;&amp;gt;" style="html=1;verticalAlign=bottom;labelBackgroundColor=none;endArrow=open;endFill=0;dashed=1;rounded=0;entryX=0;entryY=0.5;entryDx=0;entryDy=0;exitX=1;exitY=0.5;exitDx=0;exitDy=0;" edge="1" parent="1" source="vM2ADVNM73PI7zcXNsxv-2" target="vM2ADVNM73PI7zcXNsxv-3">
          <mxGeometry width="160" relative="1" as="geometry">
            <mxPoint x="1710" y="420" as="sourcePoint" />
            <mxPoint x="1870" y="420" as="targetPoint" />
            <Array as="points" />
          </mxGeometry>
        </mxCell>
        <mxCell id="vM2ADVNM73PI7zcXNsxv-16" value="&amp;lt;&amp;lt;include&amp;gt;&amp;gt;" style="html=1;verticalAlign=bottom;labelBackgroundColor=none;endArrow=open;endFill=0;dashed=1;rounded=0;exitX=0;exitY=0;exitDx=0;exitDy=0;entryX=1;entryY=1;entryDx=0;entryDy=0;" edge="1" parent="1" source="vM2ADVNM73PI7zcXNsxv-1" target="vM2ADVNM73PI7zcXNsxv-2">
          <mxGeometry width="160" relative="1" as="geometry">
            <mxPoint x="1480" y="620" as="sourcePoint" />
            <mxPoint x="1640" y="620" as="targetPoint" />
          </mxGeometry>
        </mxCell>
        <mxCell id="vM2ADVNM73PI7zcXNsxv-17" value="Registration&lt;div&gt;Confirmation&lt;/div&gt;" style="ellipse;whiteSpace=wrap;html=1;" vertex="1" parent="1">
          <mxGeometry x="1660" y="1040" width="210" height="140" as="geometry" />
        </mxCell>
        <mxCell id="vM2ADVNM73PI7zcXNsxv-18" value="&amp;lt;&amp;lt;include&amp;gt;&amp;gt;" style="html=1;verticalAlign=bottom;labelBackgroundColor=none;endArrow=open;endFill=0;dashed=1;rounded=0;entryX=0.5;entryY=1;entryDx=0;entryDy=0;exitX=0.5;exitY=0;exitDx=0;exitDy=0;" edge="1" parent="1" source="vM2ADVNM73PI7zcXNsxv-17" target="vM2ADVNM73PI7zcXNsxv-1">
          <mxGeometry width="160" relative="1" as="geometry">
            <mxPoint x="1579" y="956" as="sourcePoint" />
            <mxPoint x="1708" y="769" as="targetPoint" />
          </mxGeometry>
        </mxCell>
      </root>
    </mxGraphModel>
  </diagram>
</mxfile>
